<?xml version="1.0" encoding="UTF-8" ?>
<svg version="1.1" width="64" height="64" xmlns="http://www.w3.org/2000/svg" shape-rendering="crispEdges">
<rect x="18" y="22" width="2" height="2" fill="#752727" />
<rect x="20" y="22" width="2" height="2" fill="#752727" />
<rect x="22" y="22" width="2" height="2" fill="#752727" />
<rect x="24" y="22" width="2" height="2" fill="#752727" />
<rect x="26" y="22" width="2" height="2" fill="#752727" />
<rect x="28" y="22" width="2" height="2" fill="#752727" />
<rect x="30" y="22" width="2" height="2" fill="#752727" />
<rect x="32" y="22" width="2" height="2" fill="#752727" />
<rect x="34" y="22" width="2" height="2" fill="#752727" />
<rect x="36" y="22" width="2" height="2" fill="#752727" />
<rect x="38" y="22" width="2" height="2" fill="#752727" />
<rect x="40" y="22" width="2" height="2" fill="#752727" />
<rect x="42" y="22" width="2" height="2" fill="#752727" />
<rect x="44" y="22" width="2" height="2" fill="#752727" />
<rect x="18" y="24" width="2" height="2" fill="#752727" />
<rect x="20" y="24" width="2" height="2" fill="#FBED8E" />
<rect x="22" y="24" width="2" height="2" fill="#FBED8E" />
<rect x="24" y="24" width="2" height="2" fill="#FBED8E" />
<rect x="26" y="24" width="2" height="2" fill="#FBED8E" />
<rect x="28" y="24" width="2" height="2" fill="#FBED8E" />
<rect x="30" y="24" width="2" height="2" fill="#FBED8E" />
<rect x="32" y="24" width="2" height="2" fill="#FBED8E" />
<rect x="34" y="24" width="2" height="2" fill="#FBED8E" />
<rect x="36" y="24" width="2" height="2" fill="#FBED8E" />
<rect x="38" y="24" width="2" height="2" fill="#FBED8E" />
<rect x="40" y="24" width="2" height="2" fill="#FBED8E" />
<rect x="42" y="24" width="2" height="2" fill="#F7D84A" />
<rect x="44" y="24" width="2" height="2" fill="#752727" />
<rect x="18" y="26" width="2" height="2" fill="#752727" />
<rect x="20" y="26" width="2" height="2" fill="#FBED8E" />
<rect x="22" y="26" width="2" height="2" fill="#F7D84A" />
<rect x="24" y="26" width="2" height="2" fill="#F7D84A" />
<rect x="26" y="26" width="2" height="2" fill="#F7D84A" />
<rect x="28" y="26" width="2" height="2" fill="#F7D84A" />
<rect x="30" y="26" width="2" height="2" fill="#F7D84A" />
<rect x="32" y="26" width="2" height="2" fill="#F7D84A" />
<rect x="34" y="26" width="2" height="2" fill="#F7D84A" />
<rect x="36" y="26" width="2" height="2" fill="#F7D84A" />
<rect x="38" y="26" width="2" height="2" fill="#F7D84A" />
<rect x="40" y="26" width="2" height="2" fill="#F7D84A" />
<rect x="42" y="26" width="2" height="2" fill="#CF9233" />
<rect x="44" y="26" width="2" height="2" fill="#752727" />
<rect x="6" y="28" width="2" height="2" fill="#752727" />
<rect x="8" y="28" width="2" height="2" fill="#752727" />
<rect x="10" y="28" width="2" height="2" fill="#752727" />
<rect x="12" y="28" width="2" height="2" fill="#752727" />
<rect x="14" y="28" width="2" height="2" fill="#752727" />
<rect x="16" y="28" width="2" height="2" fill="#752727" />
<rect x="18" y="28" width="2" height="2" fill="#752727" />
<rect x="20" y="28" width="2" height="2" fill="#FBED8E" />
<rect x="22" y="28" width="2" height="2" fill="#F7D84A" />
<rect x="24" y="28" width="2" height="2" fill="#F7D84A" />
<rect x="26" y="28" width="2" height="2" fill="#F7D84A" />
<rect x="28" y="28" width="2" height="2" fill="#F7D84A" />
<rect x="30" y="28" width="2" height="2" fill="#F7D84A" />
<rect x="32" y="28" width="2" height="2" fill="#F7D84A" />
<rect x="34" y="28" width="2" height="2" fill="#F7D84A" />
<rect x="36" y="28" width="2" height="2" fill="#F7D84A" />
<rect x="38" y="28" width="2" height="2" fill="#F7D84A" />
<rect x="40" y="28" width="2" height="2" fill="#F7D84A" />
<rect x="42" y="28" width="2" height="2" fill="#CF9233" />
<rect x="44" y="28" width="2" height="2" fill="#752727" />
<rect x="46" y="28" width="2" height="2" fill="#752727" />
<rect x="48" y="28" width="2" height="2" fill="#752727" />
<rect x="50" y="28" width="2" height="2" fill="#752727" />
<rect x="52" y="28" width="2" height="2" fill="#752727" />
<rect x="54" y="28" width="2" height="2" fill="#752727" />
<rect x="56" y="28" width="2" height="2" fill="#752727" />
<rect x="6" y="30" width="2" height="2" fill="#752727" />
<rect x="8" y="30" width="2" height="2" fill="#FBED8E" />
<rect x="10" y="30" width="2" height="2" fill="#FBED8E" />
<rect x="12" y="30" width="2" height="2" fill="#FBED8E" />
<rect x="14" y="30" width="2" height="2" fill="#FBED8E" />
<rect x="16" y="30" width="2" height="2" fill="#F7D84A" />
<rect x="18" y="30" width="2" height="2" fill="#752727" />
<rect x="20" y="30" width="2" height="2" fill="#FBED8E" />
<rect x="22" y="30" width="2" height="2" fill="#F7D84A" />
<rect x="24" y="30" width="2" height="2" fill="#F7D84A" />
<rect x="26" y="30" width="2" height="2" fill="#F7D84A" />
<rect x="28" y="30" width="2" height="2" fill="#F7D84A" />
<rect x="30" y="30" width="2" height="2" fill="#F7D84A" />
<rect x="32" y="30" width="2" height="2" fill="#F7D84A" />
<rect x="34" y="30" width="2" height="2" fill="#F7D84A" />
<rect x="36" y="30" width="2" height="2" fill="#F7D84A" />
<rect x="38" y="30" width="2" height="2" fill="#F7D84A" />
<rect x="40" y="30" width="2" height="2" fill="#F7D84A" />
<rect x="42" y="30" width="2" height="2" fill="#CF9233" />
<rect x="44" y="30" width="2" height="2" fill="#752727" />
<rect x="46" y="30" width="2" height="2" fill="#FBED8E" />
<rect x="48" y="30" width="2" height="2" fill="#FBED8E" />
<rect x="50" y="30" width="2" height="2" fill="#FBED8E" />
<rect x="52" y="30" width="2" height="2" fill="#FBED8E" />
<rect x="54" y="30" width="2" height="2" fill="#F7D84A" />
<rect x="56" y="30" width="2" height="2" fill="#752727" />
<rect x="6" y="32" width="2" height="2" fill="#752727" />
<rect x="8" y="32" width="2" height="2" fill="#FBED8E" />
<rect x="10" y="32" width="2" height="2" fill="#F7D84A" />
<rect x="12" y="32" width="2" height="2" fill="#F7D84A" />
<rect x="14" y="32" width="2" height="2" fill="#F7D84A" />
<rect x="16" y="32" width="2" height="2" fill="#CF9233" />
<rect x="18" y="32" width="2" height="2" fill="#752727" />
<rect x="20" y="32" width="2" height="2" fill="#FBED8E" />
<rect x="22" y="32" width="2" height="2" fill="#F7D84A" />
<rect x="24" y="32" width="2" height="2" fill="#F7D84A" />
<rect x="26" y="32" width="2" height="2" fill="#F7D84A" />
<rect x="28" y="32" width="2" height="2" fill="#F7D84A" />
<rect x="30" y="32" width="2" height="2" fill="#F7D84A" />
<rect x="32" y="32" width="2" height="2" fill="#F7D84A" />
<rect x="34" y="32" width="2" height="2" fill="#F7D84A" />
<rect x="36" y="32" width="2" height="2" fill="#F7D84A" />
<rect x="38" y="32" width="2" height="2" fill="#F7D84A" />
<rect x="40" y="32" width="2" height="2" fill="#F7D84A" />
<rect x="42" y="32" width="2" height="2" fill="#CF9233" />
<rect x="44" y="32" width="2" height="2" fill="#752727" />
<rect x="46" y="32" width="2" height="2" fill="#FBED8E" />
<rect x="48" y="32" width="2" height="2" fill="#F7D84A" />
<rect x="50" y="32" width="2" height="2" fill="#F7D84A" />
<rect x="52" y="32" width="2" height="2" fill="#F7D84A" />
<rect x="54" y="32" width="2" height="2" fill="#CF9233" />
<rect x="56" y="32" width="2" height="2" fill="#752727" />
<rect x="6" y="34" width="2" height="2" fill="#752727" />
<rect x="8" y="34" width="2" height="2" fill="#FBED8E" />
<rect x="10" y="34" width="2" height="2" fill="#F7D84A" />
<rect x="12" y="34" width="2" height="2" fill="#F7D84A" />
<rect x="14" y="34" width="2" height="2" fill="#F7D84A" />
<rect x="16" y="34" width="2" height="2" fill="#CF9233" />
<rect x="18" y="34" width="2" height="2" fill="#752727" />
<rect x="20" y="34" width="2" height="2" fill="#FBED8E" />
<rect x="22" y="34" width="2" height="2" fill="#F7D84A" />
<rect x="24" y="34" width="2" height="2" fill="#F7D84A" />
<rect x="26" y="34" width="2" height="2" fill="#F7D84A" />
<rect x="28" y="34" width="2" height="2" fill="#F7D84A" />
<rect x="30" y="34" width="2" height="2" fill="#F7D84A" />
<rect x="32" y="34" width="2" height="2" fill="#F7D84A" />
<rect x="34" y="34" width="2" height="2" fill="#F7D84A" />
<rect x="36" y="34" width="2" height="2" fill="#F7D84A" />
<rect x="38" y="34" width="2" height="2" fill="#F7D84A" />
<rect x="40" y="34" width="2" height="2" fill="#F7D84A" />
<rect x="42" y="34" width="2" height="2" fill="#CF9233" />
<rect x="44" y="34" width="2" height="2" fill="#752727" />
<rect x="46" y="34" width="2" height="2" fill="#FBED8E" />
<rect x="48" y="34" width="2" height="2" fill="#F7D84A" />
<rect x="50" y="34" width="2" height="2" fill="#F7D84A" />
<rect x="52" y="34" width="2" height="2" fill="#F7D84A" />
<rect x="54" y="34" width="2" height="2" fill="#CF9233" />
<rect x="56" y="34" width="2" height="2" fill="#752727" />
<rect x="6" y="36" width="2" height="2" fill="#752727" />
<rect x="8" y="36" width="2" height="2" fill="#F7D84A" />
<rect x="10" y="36" width="2" height="2" fill="#CF9233" />
<rect x="12" y="36" width="2" height="2" fill="#CF9233" />
<rect x="14" y="36" width="2" height="2" fill="#CF9233" />
<rect x="16" y="36" width="2" height="2" fill="#CF9233" />
<rect x="18" y="36" width="2" height="2" fill="#752727" />
<rect x="20" y="36" width="2" height="2" fill="#F7D84A" />
<rect x="22" y="36" width="2" height="2" fill="#CF9233" />
<rect x="24" y="36" width="2" height="2" fill="#CF9233" />
<rect x="26" y="36" width="2" height="2" fill="#CF9233" />
<rect x="28" y="36" width="2" height="2" fill="#CF9233" />
<rect x="30" y="36" width="2" height="2" fill="#CF9233" />
<rect x="32" y="36" width="2" height="2" fill="#CF9233" />
<rect x="34" y="36" width="2" height="2" fill="#CF9233" />
<rect x="36" y="36" width="2" height="2" fill="#CF9233" />
<rect x="38" y="36" width="2" height="2" fill="#CF9233" />
<rect x="40" y="36" width="2" height="2" fill="#CF9233" />
<rect x="42" y="36" width="2" height="2" fill="#CF9233" />
<rect x="44" y="36" width="2" height="2" fill="#752727" />
<rect x="46" y="36" width="2" height="2" fill="#F7D84A" />
<rect x="48" y="36" width="2" height="2" fill="#CF9233" />
<rect x="50" y="36" width="2" height="2" fill="#CF9233" />
<rect x="52" y="36" width="2" height="2" fill="#CF9233" />
<rect x="54" y="36" width="2" height="2" fill="#CF9233" />
<rect x="56" y="36" width="2" height="2" fill="#752727" />
<rect x="2" y="38" width="2" height="2" fill="#752727" />
<rect x="4" y="38" width="2" height="2" fill="#752727" />
<rect x="6" y="38" width="2" height="2" fill="#752727" />
<rect x="8" y="38" width="2" height="2" fill="#752727" />
<rect x="10" y="38" width="2" height="2" fill="#752727" />
<rect x="12" y="38" width="2" height="2" fill="#752727" />
<rect x="14" y="38" width="2" height="2" fill="#752727" />
<rect x="16" y="38" width="2" height="2" fill="#752727" />
<rect x="18" y="38" width="2" height="2" fill="#752727" />
<rect x="20" y="38" width="2" height="2" fill="#752727" />
<rect x="22" y="38" width="2" height="2" fill="#752727" />
<rect x="24" y="38" width="2" height="2" fill="#752727" />
<rect x="26" y="38" width="2" height="2" fill="#752727" />
<rect x="28" y="38" width="2" height="2" fill="#752727" />
<rect x="30" y="38" width="2" height="2" fill="#752727" />
<rect x="32" y="38" width="2" height="2" fill="#752727" />
<rect x="34" y="38" width="2" height="2" fill="#752727" />
<rect x="36" y="38" width="2" height="2" fill="#752727" />
<rect x="38" y="38" width="2" height="2" fill="#752727" />
<rect x="40" y="38" width="2" height="2" fill="#752727" />
<rect x="42" y="38" width="2" height="2" fill="#752727" />
<rect x="44" y="38" width="2" height="2" fill="#752727" />
<rect x="46" y="38" width="2" height="2" fill="#752727" />
<rect x="48" y="38" width="2" height="2" fill="#752727" />
<rect x="50" y="38" width="2" height="2" fill="#752727" />
<rect x="52" y="38" width="2" height="2" fill="#752727" />
<rect x="54" y="38" width="2" height="2" fill="#752727" />
<rect x="56" y="38" width="2" height="2" fill="#752727" />
<rect x="58" y="38" width="2" height="2" fill="#752727" />
<rect x="60" y="38" width="2" height="2" fill="#752727" />
<rect x="2" y="40" width="2" height="2" fill="#752727" />
<rect x="4" y="40" width="2" height="2" fill="#FBED8E" />
<rect x="6" y="40" width="2" height="2" fill="#FBED8E" />
<rect x="8" y="40" width="2" height="2" fill="#FBED8E" />
<rect x="10" y="40" width="2" height="2" fill="#F7D84A" />
<rect x="12" y="40" width="2" height="2" fill="#F7D84A" />
<rect x="14" y="40" width="2" height="2" fill="#F7D84A" />
<rect x="16" y="40" width="2" height="2" fill="#F7D84A" />
<rect x="18" y="40" width="2" height="2" fill="#F7D84A" />
<rect x="20" y="40" width="2" height="2" fill="#F7D84A" />
<rect x="22" y="40" width="2" height="2" fill="#F7D84A" />
<rect x="24" y="40" width="2" height="2" fill="#F7D84A" />
<rect x="26" y="40" width="2" height="2" fill="#F7D84A" />
<rect x="28" y="40" width="2" height="2" fill="#F7D84A" />
<rect x="30" y="40" width="2" height="2" fill="#F7D84A" />
<rect x="32" y="40" width="2" height="2" fill="#F7D84A" />
<rect x="34" y="40" width="2" height="2" fill="#F7D84A" />
<rect x="36" y="40" width="2" height="2" fill="#F7D84A" />
<rect x="38" y="40" width="2" height="2" fill="#F7D84A" />
<rect x="40" y="40" width="2" height="2" fill="#F7D84A" />
<rect x="42" y="40" width="2" height="2" fill="#F7D84A" />
<rect x="44" y="40" width="2" height="2" fill="#F7D84A" />
<rect x="46" y="40" width="2" height="2" fill="#F7D84A" />
<rect x="48" y="40" width="2" height="2" fill="#F7D84A" />
<rect x="50" y="40" width="2" height="2" fill="#F7D84A" />
<rect x="52" y="40" width="2" height="2" fill="#F7D84A" />
<rect x="54" y="40" width="2" height="2" fill="#CF9233" />
<rect x="56" y="40" width="2" height="2" fill="#CF9233" />
<rect x="58" y="40" width="2" height="2" fill="#CF9233" />
<rect x="60" y="40" width="2" height="2" fill="#752727" />
<rect x="2" y="42" width="2" height="2" fill="#752727" />
<rect x="4" y="42" width="2" height="2" fill="#752727" />
<rect x="6" y="42" width="2" height="2" fill="#752727" />
<rect x="8" y="42" width="2" height="2" fill="#752727" />
<rect x="10" y="42" width="2" height="2" fill="#752727" />
<rect x="12" y="42" width="2" height="2" fill="#752727" />
<rect x="14" y="42" width="2" height="2" fill="#752727" />
<rect x="16" y="42" width="2" height="2" fill="#752727" />
<rect x="18" y="42" width="2" height="2" fill="#752727" />
<rect x="20" y="42" width="2" height="2" fill="#752727" />
<rect x="22" y="42" width="2" height="2" fill="#752727" />
<rect x="24" y="42" width="2" height="2" fill="#752727" />
<rect x="26" y="42" width="2" height="2" fill="#752727" />
<rect x="28" y="42" width="2" height="2" fill="#752727" />
<rect x="30" y="42" width="2" height="2" fill="#752727" />
<rect x="32" y="42" width="2" height="2" fill="#752727" />
<rect x="34" y="42" width="2" height="2" fill="#752727" />
<rect x="36" y="42" width="2" height="2" fill="#752727" />
<rect x="38" y="42" width="2" height="2" fill="#752727" />
<rect x="40" y="42" width="2" height="2" fill="#752727" />
<rect x="42" y="42" width="2" height="2" fill="#752727" />
<rect x="44" y="42" width="2" height="2" fill="#752727" />
<rect x="46" y="42" width="2" height="2" fill="#752727" />
<rect x="48" y="42" width="2" height="2" fill="#752727" />
<rect x="50" y="42" width="2" height="2" fill="#752727" />
<rect x="52" y="42" width="2" height="2" fill="#752727" />
<rect x="54" y="42" width="2" height="2" fill="#752727" />
<rect x="56" y="42" width="2" height="2" fill="#752727" />
<rect x="58" y="42" width="2" height="2" fill="#752727" />
<rect x="60" y="42" width="2" height="2" fill="#752727" />
</svg>